<?xml version="1.0" encoding="iso-8859-1"?>
<!-- Generator: Adobe Illustrator 19.0.0, SVG Export Plug-In . SVG Version: 6.00 Build 0)  -->
<svg version="1.1" id="Layer_1" xmlns="http://www.w3.org/2000/svg" xmlns:xlink="http://www.w3.org/1999/xlink" x="0px" y="0px"
	 viewBox="0 0 512.001 512.001" style="enable-background:new 0 0 512.001 512.001;" xml:space="preserve">
<g>
	<g>
		<path d="M453.988,66.949c-68.002,9.719-137.607-13.485-186.181-62.06c-6.519-6.519-17.091-6.519-23.611,0
			C195.62,53.466,126.018,76.666,58.013,66.949c-10.066-1.435-19.056,6.383-19.056,16.529v111.305
			c0,66.429,20.412,131.455,59.029,188.052c37.266,54.616,89.454,98.734,150.921,127.584c4.493,2.108,9.694,2.109,14.187,0
			c61.467-28.85,113.654-72.968,150.921-127.584c38.617-56.597,59.029-121.625,59.029-188.052V83.478
			C473.044,73.328,464.052,65.52,453.988,66.949z M439.653,194.783c0,116.546-71.828,226.414-183.653,281.982
			C144.176,421.195,72.348,311.328,72.348,194.783v-92.799c32.606,2.128,65.661-2.085,96.64-12.41
			c31.924-10.641,61.716-27.799,87.012-50.01c25.296,22.211,55.088,39.368,87.012,50.01c30.978,10.326,64.038,14.535,96.64,12.41
			V194.783z"/>
	</g>
</g>
<g>
	<g>
		<path d="M406.262,150.831c0-8.52-6.418-15.675-14.888-16.598c-44.927-4.893-88.504-20.623-126.031-45.486
			c-0.007-0.004-0.014-0.009-0.021-0.014c-5.868-3.904-13.175-3.625-18.549-0.06c-0.03,0.02-0.061,0.04-0.092,0.06
			c-0.007,0.004-0.014,0.009-0.021,0.014c-37.527,24.863-81.104,40.593-126.031,45.486c-8.471,0.923-14.888,8.077-14.888,16.598
			c0,49.152-5.001,107.215,38.369,179.901c24.795,41.558,60.493,77.237,103.229,103.176c5.269,3.202,12.012,3.23,17.326,0
			c42.737-25.941,78.434-61.618,103.229-103.176C411.18,258.184,406.262,200.212,406.262,150.831z M239.305,387.982
			c-38.186-29.411-67.133-67.653-83.859-109.722h83.859V387.982z M239.305,244.87h-94.344c-3.829-16.427-5.83-33.211-5.83-50.087
			v-29.335c34.997-5.512,68.985-16.922,100.174-33.529V244.87z M272.696,387.982V278.261h83.859
			C339.829,320.329,310.882,358.572,272.696,387.982z M372.87,194.783c0,16.876-2.001,33.66-5.83,50.087h-94.344V131.918
			c31.189,16.608,65.177,28.016,100.174,33.529V194.783z"/>
	</g>
</g>
<g>
</g>
<g>
</g>
<g>
</g>
<g>
</g>
<g>
</g>
<g>
</g>
<g>
</g>
<g>
</g>
<g>
</g>
<g>
</g>
<g>
</g>
<g>
</g>
<g>
</g>
<g>
</g>
<g>
</g>
</svg>
